<svg width="16" height="30" viewBox="0 0 16 30" fill="none" xmlns="http://www.w3.org/2000/svg">
<path fill-rule="evenodd" clip-rule="evenodd" d="M0.327279 0.925389C0.43076 0.822245 0.553692 0.740412 0.689032 0.684577C0.824372 0.628741 0.969463 0.6 1.11599 0.6C1.26252 0.6 1.40761 0.628741 1.54295 0.684577C1.67829 0.740412 1.80122 0.822245 1.90471 0.925389L15.2727 14.2161C15.3765 14.319 15.4588 14.4412 15.5149 14.5758C15.5711 14.7104 15.6 14.8546 15.6 15.0003C15.6 15.146 15.5711 15.2902 15.5149 15.4248C15.4588 15.5593 15.3765 15.6816 15.2727 15.7844L1.90471 29.0752C1.69553 29.2832 1.41182 29.4 1.11599 29.4C0.820167 29.4 0.536459 29.2832 0.327279 29.0752C0.118099 28.8672 0.000583254 28.5852 0.000583254 28.291C0.000583254 27.9969 0.118099 27.7149 0.327279 27.5069L12.9088 15.0003L0.327279 2.4937C0.223536 2.39081 0.141227 2.26859 0.085067 2.13404C0.028907 1.99948 0 1.85523 0 1.70954C0 1.56386 0.028907 1.41961 0.085067 1.28505C0.141227 1.15049 0.223536 1.02827 0.327279 0.925389Z" fill="white"/>
</svg>
